# xmcd
#
# Track frame offsets:
#	150
#	11363
#	23268
#	36421
#	47995
#	60835
#	72873
#	86950
#	99427
#	111935
#	123941
#	136514
#	148814
#	160529
#	172660
#	184808
#	196426
#	211393
#	223825
#	235928
#
# Disc length: 3297 seconds
#
# Revision: 0
# Processed by: cddbd v1.5.2PL0 Copyright (c) Steve Scherf et al.
# Submitted via: EasyCDDAExtractor 16.1.0.1
#
DISCID=0d0cdf14
DTITLE=Various Artist - The Bullet Records Story: The First Americana Label (
DTITLE=Disc #1)
DYEAR=2011
DGENRE=Country
TTITLE0=Wynonie Harris - Dig This Boogie
TTITLE1=Wynonie Harris - Drinkin' By Myself
TTITLE2=Cecil Gant - Nashville Jumps
TTITLE3=Cecil Gant - Anna Mae
TTITLE4=Rudy Greene Trio - No Good Woman Blues
TTITLE5=Big Three Trio - You Sure Look Good To Me
TTITLE6=St. Louis Jimmy - Goin' Down Slow
TTITLE7=St. Louis Jimmy - I ain't Done Nothing Wrong
TTITLE8=Joe Williams - Jivin' Woman
TTITLE9=Joe Williams - She's a Married Woman
TTITLE10=Sherman Williams Orchestra - Sherman's Boogie
TTITLE11=Sherman Williams Orchestra - Baby Don't You Want To Go?
TTITLE12=Smoky Hogg - Hard Times
TTITLE13=Smoky Hogg - Goin' Back Home
TTITLE14=Walter Davis - Move Back To The Woods
TTITLE15=Walter Davis - You've Got To Reap What you Sow
TTITLE16=Max Blues Bailey - Delinquency Blues
TTITLE17=Max Blues Bailey - Sting-A-Ree
TTITLE18=B.B. King - Miss Martha King
TTITLE19=B.B. King - Take A Swing With Me
EXTD=
EXTT0=
EXTT1=
EXTT2=
EXTT3=
EXTT4=
EXTT5=
EXTT6=
EXTT7=
EXTT8=
EXTT9=
EXTT10=
EXTT11=
EXTT12=
EXTT13=
EXTT14=
EXTT15=
EXTT16=
EXTT17=
EXTT18=
EXTT19=
PLAYORDER=
